# xmcd
#
# Track frame offsets: 
#        150
#        23767
#        53128
#        59999
#        123515
#        175796
#        205666
#        226409
#
# Disc length: 4329 seconds
#
# Revision: 0
# Processed by: cddbd v1.5.2PL0 Copyright (c) Steve Scherf et al.
# Submitted via: ExactAudioCopy v1.0b3
#
DISCID=6c10e708
DTITLE=Gov't Mule - Beacon Theatre 2012-12-30-D2
DYEAR=2012
DGENRE=Blues
TTITLE0=Mr Man
TTITLE1=Broke Down On The Brazos
TTITLE2=Tributary Jam
TTITLE3=Trouble Every Day
TTITLE4=John The Revelator
TTITLE5=Good Morning Little Schoolgirl
TTITLE6=Long As I Can See The Light
TTITLE7=Blind Man In The Dark
EXTD=
EXTT0=
EXTT1=
EXTT2=
EXTT3=
EXTT4=
EXTT5=
EXTT6=
EXTT7=
PLAYORDER=
